<svg id="svg" version="1.1" xmlns="http://www.w3.org/2000/svg" xmlns:xlink="http://www.w3.org/1999/xlink" width="400" height="329.4117647058824" viewBox="0, 0, 400,329.4117647058824"><g id="svgg"><path id="path0" d="M185.056 3.689 C 161.868 5.648,143.872 10.437,124.801 19.722 C 61.797 50.398,26.240 119.340,37.873 188.269 L 38.549 192.276 45.586 188.741 C 51.491 185.775,60.753 181.510,65.580 179.535 L 66.773 179.047 66.773 158.170 L 66.773 137.293 63.903 133.750 L 61.034 130.207 73.839 130.124 C 80.882 130.078,86.802 130.101,86.994 130.175 C 87.187 130.248,91.980 138.310,97.647 148.089 L 107.949 165.869 108.032 151.425 L 108.115 136.980 105.412 133.594 L 102.709 130.207 107.793 130.119 C 110.590 130.071,115.165 130.071,117.960 130.119 L 123.043 130.207 120.186 133.340 L 117.329 136.473 117.329 148.840 C 117.329 155.643,117.436 161.212,117.568 161.217 C 118.211 161.240,136.718 155.610,136.721 155.390 C 136.723 155.250,135.854 153.677,134.790 151.892 C 122.090 130.598,112.758 99.070,114.141 82.134 C 116.286 55.883,140.911 49.733,172.496 67.562 C 190.008 77.447,214.859 98.288,229.730 115.561 C 231.828 117.998,233.981 120.482,234.513 121.080 L 235.481 122.168 238.625 120.830 C 264.193 109.948,293.639 93.568,318.209 76.560 C 325.950 71.201,325.392 72.054,323.172 68.971 C 293.893 28.305,247.106 4.122,196.820 3.663 C 191.137 3.611,185.843 3.622,185.056 3.689 M194.281 15.202 C 195.567 16.243,194.782 18.760,193.171 18.760 C 192.399 18.760,191.097 17.448,191.097 16.670 C 191.097 14.978,192.950 14.124,194.281 15.202 M224.848 30.688 C 225.190 31.014,229.529 31.613,233.085 31.824 C 234.044 31.881,231.794 32.361,228.753 32.749 C 224.426 33.300,224.546 33.105,223.878 40.715 C 223.589 44.010,223.277 46.782,223.184 46.875 C 223.091 46.968,222.753 44.297,222.434 40.939 C 221.666 32.863,221.913 33.204,216.609 32.898 C 212.014 32.633,212.106 32.350,216.973 31.781 C 221.835 31.212,221.723 31.353,222.399 24.960 C 223.150 17.869,223.268 17.828,223.878 24.439 C 224.237 28.323,224.562 30.415,224.848 30.688 M184.609 32.593 C 185.050 33.266,185.070 33.539,184.735 34.346 C 184.035 36.036,181.491 35.928,181.055 34.190 C 180.534 32.114,183.440 30.809,184.609 32.593 M202.873 35.314 C 203.582 36.639,201.650 37.479,200.846 36.195 C 200.606 35.812,200.630 35.526,200.932 35.162 C 201.514 34.460,202.455 34.534,202.873 35.314 M188.800 45.646 C 189.579 46.191,189.758 47.635,189.126 48.267 C 187.904 49.489,185.678 47.972,186.299 46.340 C 186.764 45.116,187.681 44.862,188.800 45.646 M163.700 45.748 C 163.934 45.897,164.077 46.359,164.018 46.777 C 163.881 47.745,162.083 47.904,161.902 46.964 C 161.692 45.873,162.759 45.152,163.700 45.748 M167.568 49.257 C 167.568 50.130,166.684 50.756,166.031 50.345 C 165.278 49.871,165.176 48.920,165.828 48.444 C 166.528 47.931,167.568 48.417,167.568 49.257 M172.032 50.503 C 173.436 51.640,172.040 53.645,170.441 52.789 C 169.665 52.373,169.587 51.126,170.293 50.420 C 170.932 49.781,171.154 49.792,172.032 50.503 M203.520 53.922 C 204.085 54.602,203.516 55.485,202.513 55.485 C 201.735 55.485,201.373 54.759,201.712 53.876 C 201.946 53.266,202.998 53.293,203.520 53.922 M166.138 56.281 C 166.988 57.220,166.355 58.506,165.042 58.506 C 163.742 58.506,163.188 57.497,163.896 56.417 C 164.511 55.478,165.364 55.426,166.138 56.281 M134.658 62.792 C 115.399 67.031,112.967 92.275,128.378 127.981 C 131.262 134.664,139.275 150.525,141.418 153.794 C 141.620 154.102,147.764 152.637,148.015 152.220 C 148.219 151.882,152.337 137.284,152.254 137.191 C 152.195 137.125,150.578 135.489,148.661 133.556 L 145.175 130.042 161.180 130.124 L 177.186 130.207 179.267 136.296 C 181.027 141.445,181.426 142.343,181.851 142.104 C 182.127 141.949,186.216 140.545,190.938 138.984 C 208.160 133.291,230.963 124.629,230.781 123.850 C 230.384 122.154,210.652 101.604,202.431 94.325 C 176.003 70.926,150.857 59.226,134.658 62.792 M225.569 65.579 C 225.883 66.470,225.203 67.910,224.305 68.255 C 222.796 68.834,221.026 67.131,221.537 65.590 C 222.161 63.710,224.908 63.702,225.569 65.579 M152.168 73.310 C 152.806 77.639,152.874 77.715,156.504 78.211 C 159.714 78.650,159.666 78.876,156.238 79.464 C 152.972 80.025,152.841 80.237,152.195 86.034 C 151.903 88.644,151.666 90.910,151.667 91.070 C 151.668 91.231,151.596 91.288,151.506 91.198 C 151.416 91.108,151.062 88.864,150.721 86.211 C 149.931 80.074,149.854 79.957,146.433 79.657 C 143.640 79.413,143.713 79.148,146.741 78.543 C 149.116 78.068,149.975 77.536,150.199 76.402 C 150.296 75.915,150.611 74.186,150.899 72.559 C 151.188 70.932,151.475 69.652,151.539 69.716 C 151.602 69.779,151.885 71.397,152.168 73.310 M136.673 76.591 C 136.907 76.739,137.050 77.202,136.991 77.619 C 136.854 78.587,135.056 78.746,134.875 77.807 C 134.665 76.716,135.732 75.994,136.673 76.591 M142.130 83.943 C 142.896 84.708,142.925 85.164,142.271 86.098 C 141.371 87.384,139.269 86.711,139.269 85.137 C 139.269 83.531,140.997 82.809,142.130 83.943 M335.612 99.581 C 328.699 105.836,314.322 117.608,303.257 126.073 L 298.270 129.889 304.657 130.048 L 311.045 130.207 319.869 155.962 L 328.692 181.717 333.070 185.692 L 337.448 189.666 327.865 189.750 C 322.595 189.797,314.000 189.797,308.766 189.750 L 299.249 189.666 302.211 186.309 L 305.173 182.953 303.969 179.155 L 302.765 175.358 293.208 175.274 L 283.652 175.189 283.325 176.386 C 283.146 177.045,282.655 178.826,282.235 180.344 L 281.471 183.105 284.297 186.281 C 285.851 188.028,287.122 189.541,287.122 189.642 C 287.122 189.742,284.603 189.825,281.524 189.825 C 277.177 189.825,275.959 189.914,276.076 190.223 C 285.066 213.951,285.714 237.112,277.659 246.830 C 268.944 257.345,248.025 257.496,231.999 247.161 C 229.107 245.296,229.301 245.278,234.340 246.948 C 259.839 255.395,272.409 253.047,277.995 238.792 C 280.142 233.313,280.121 228.497,277.878 211.129 C 276.793 202.724,276.292 200.436,274.179 194.206 L 272.698 189.844 268.861 189.755 L 265.024 189.666 267.647 187.469 C 269.090 186.261,270.270 185.095,270.270 184.879 C 270.270 184.014,261.109 166.348,260.075 165.218 C 259.933 165.063,260.118 165.850,260.486 166.967 C 264.750 179.902,253.177 190.024,233.386 190.670 C 226.972 190.880,224.697 190.652,220.326 189.366 L 217.647 188.578 213.911 191.076 L 210.175 193.575 210.175 191.833 C 210.175 190.704,210.051 190.131,209.824 190.207 C 209.174 190.424,183.170 207.470,183.159 207.687 C 183.144 207.981,189.425 212.921,194.362 216.498 C 200.039 220.611,201.259 222.855,199.694 226.305 C 197.577 230.967,190.705 229.281,187.159 223.230 C 185.371 220.180,178.751 211.450,178.019 211.179 C 176.732 210.702,83.625 274.622,83.625 275.983 C 83.625 277.135,97.460 288.571,105.246 293.854 C 178.992 343.897,279.837 323.389,328.298 248.495 C 357.179 203.861,361.642 146.154,339.923 98.172 C 339.066 96.280,339.368 96.182,335.612 99.581 M304.293 115.308 C 293.201 121.487,277.571 128.810,263.275 134.525 L 255.485 137.639 255.326 141.713 C 255.236 144.016,255.053 145.611,254.906 145.383 C 254.552 144.836,250.488 141.775,250.328 141.935 C 250.192 142.070,255.931 150.715,256.156 150.715 C 256.319 150.715,264.331 145.136,274.342 138.053 L 281.752 132.810 280.396 131.429 L 279.041 130.048 282.340 130.048 L 285.639 130.048 289.481 127.285 C 293.798 124.181,308.103 113.594,308.569 113.160 C 309.119 112.646,308.622 112.896,304.293 115.308 M280.291 143.018 C 277.496 145.040,271.844 149.049,267.732 151.927 C 263.619 154.805,260.217 157.190,260.171 157.227 C 260.126 157.264,261.180 159.212,262.516 161.556 C 265.007 165.932,270.349 176.507,272.040 180.414 L 272.990 182.608 279.304 161.086 C 282.776 149.250,285.562 139.515,285.495 139.454 C 285.428 139.392,283.087 140.996,280.291 143.018 M237.281 144.015 C 233.215 145.330,229.889 146.507,229.889 146.630 C 229.889 147.064,233.447 148.527,239.374 150.530 C 242.673 151.645,246.452 153.084,247.773 153.727 L 250.173 154.898 251.467 154.081 L 252.762 153.264 249.068 147.936 C 247.036 145.005,245.216 142.386,245.024 142.116 C 244.717 141.685,243.760 141.919,237.281 144.015 M158.081 147.995 C 157.673 149.445,157.713 149.544,158.571 149.212 C 159.147 148.989,159.170 148.864,158.820 147.854 L 158.434 146.741 158.081 147.995 M291.910 148.481 C 291.691 149.264,290.437 153.556,289.125 158.020 C 287.812 162.484,286.665 166.387,286.575 166.693 C 286.424 167.210,286.859 167.250,292.650 167.250 C 296.080 167.250,298.885 167.214,298.882 167.170 C 298.879 167.126,297.399 162.583,295.593 157.075 L 292.309 147.059 291.910 148.481 M197.774 155.416 C 191.916 156.914,187.067 158.181,187.000 158.233 C 186.932 158.285,188.629 163.447,190.769 169.704 L 194.662 181.081 197.524 183.863 C 200.975 187.218,199.997 187.247,205.546 183.620 L 210.175 180.595 210.175 176.412 L 210.175 172.228 211.367 173.923 C 212.023 174.856,213.080 176.037,213.716 176.548 L 214.873 177.478 216.101 176.696 C 216.776 176.266,219.855 174.270,222.942 172.261 L 228.554 168.607 224.872 166.905 C 217.400 163.449,211.981 159.052,209.843 154.710 C 209.278 153.562,208.728 152.639,208.621 152.658 C 208.514 152.677,203.633 153.918,197.774 155.416 M75.994 164.971 C 75.994 170.596,76.101 175.201,76.232 175.204 C 76.598 175.211,85.339 171.949,85.631 171.696 C 85.824 171.529,76.809 155.582,76.122 154.875 C 76.052 154.803,75.994 159.346,75.994 164.971 M256.603 159.822 C 256.600 160.021,256.892 160.522,257.252 160.935 C 257.766 161.524,257.836 161.549,257.580 161.049 C 257.029 159.971,256.608 159.442,256.603 159.822 M157.832 164.855 C 152.969 165.974,152.623 166.103,152.623 166.791 C 152.623 167.175,153.641 167.250,158.858 167.250 C 164.062 167.250,165.064 167.176,164.922 166.806 C 164.828 166.562,164.575 165.775,164.360 165.057 C 163.880 163.454,163.917 163.455,157.832 164.855 M142.130 168.255 C 141.518 168.399,136.367 169.526,130.684 170.759 C 125.000 171.992,119.670 173.149,118.839 173.331 L 117.329 173.662 117.329 177.613 L 117.329 181.565 120.512 185.616 L 123.695 189.666 110.417 189.749 C 103.114 189.795,96.982 189.772,96.791 189.699 C 96.600 189.626,95.185 187.406,93.647 184.767 C 92.109 182.128,90.719 179.968,90.558 179.968 C 90.016 179.968,77.996 183.074,76.379 183.632 C 76.138 183.715,77.243 185.006,79.082 186.788 L 82.194 189.802 71.781 189.814 C 62.176 189.824,60.598 189.702,61.684 189.031 C 65.390 186.741,57.149 189.094,43.879 194.116 C 38.852 196.018,39.177 195.504,40.217 199.904 C 46.250 225.435,60.147 251.233,78.426 270.834 L 80.286 272.829 86.179 268.131 C 104.250 253.725,131.867 233.640,162.321 212.755 C 167.218 209.396,171.574 206.395,172.002 206.085 L 172.780 205.521 170.247 202.522 C 165.584 197.001,156.993 185.665,151.971 178.405 C 149.793 175.257,149.680 175.207,149.173 177.181 C 148.981 177.927,148.543 179.505,148.201 180.688 L 147.578 182.838 150.458 186.187 C 152.041 188.029,153.270 189.603,153.188 189.685 C 153.106 189.767,148.133 189.796,142.136 189.750 L 131.234 189.666 135.172 186.141 L 139.110 182.616 141.228 175.330 C 142.393 171.323,143.323 168.033,143.295 168.018 C 143.266 168.004,142.742 168.110,142.130 168.255 M230.741 176.557 C 226.403 179.365,223.971 181.120,224.230 181.257 C 226.189 182.294,233.788 182.622,236.575 181.789 C 240.690 180.559,242.048 176.360,239.308 173.341 C 237.968 171.864,238.027 171.842,230.741 176.557 M155.014 176.067 C 161.047 185.489,171.188 197.910,175.883 201.628 L 177.108 202.598 186.512 196.291 L 195.917 189.984 180.664 189.825 L 165.412 189.666 168.226 186.328 C 171.455 182.495,171.406 182.710,170.003 178.525 L 168.942 175.358 161.696 175.272 L 154.450 175.187 155.014 176.067 M137.615 192.750 C 138.574 193.709,137.723 195.375,136.377 195.175 C 135.348 195.023,134.929 194.186,135.384 193.188 C 135.788 192.302,136.940 192.075,137.615 192.750 M316.041 203.100 C 316.560 207.594,316.678 207.758,319.770 208.252 C 323.079 208.782,323.527 209.079,321.421 209.345 C 317.977 209.781,317.679 209.889,317.051 210.925 C 316.716 211.479,316.266 213.198,316.041 214.785 C 315.340 219.730,315.095 219.489,314.272 213.048 C 313.935 210.418,313.367 209.998,309.555 209.562 C 307.815 209.363,306.343 209.152,306.285 209.093 C 306.226 209.034,307.717 208.747,309.598 208.454 C 313.932 207.779,313.908 207.803,314.633 203.339 C 315.367 198.820,315.544 198.790,316.041 203.100 M295.669 202.472 C 296.324 203.695,294.701 204.743,293.812 203.672 C 293.602 203.418,293.522 202.917,293.636 202.559 C 293.896 201.740,295.247 201.682,295.669 202.472 M299.341 209.403 C 300.447 210.509,299.528 212.719,297.962 212.719 C 297.324 212.719,296.025 211.450,296.025 210.826 C 296.025 209.220,298.218 208.279,299.341 209.403 M276.167 210.001 C 278.331 212.165,275.770 215.720,273.084 214.283 C 272.159 213.788,271.474 211.986,271.842 211.017 C 272.532 209.203,274.829 208.664,276.167 210.001 M321.517 218.332 C 322.813 219.505,321.861 221.940,320.106 221.940 C 319.325 221.940,317.965 220.535,317.965 219.728 C 317.965 218.145,320.297 217.228,321.517 218.332 M263.647 219.604 C 264.369 220.257,264.387 220.920,263.703 221.676 C 262.390 223.127,260.113 221.500,261.179 219.873 C 261.780 218.956,262.808 218.844,263.647 219.604 M275.945 221.860 C 277.434 223.120,276.909 225.156,274.976 225.613 C 274.313 225.770,273.933 225.632,273.307 225.005 C 271.413 223.111,273.908 220.137,275.945 221.860 M313.337 222.010 C 314.338 223.440,313.558 225.119,311.892 225.119 C 310.208 225.119,309.371 222.745,310.723 221.799 C 311.720 221.100,312.758 221.184,313.337 222.010 M138.562 222.117 C 139.959 223.095,139.078 225.437,137.313 225.437 C 136.808 225.437,135.453 224.048,135.453 223.529 C 135.453 222.189,137.401 221.304,138.562 222.117 M97.377 230.145 C 98.467 231.081,97.607 233.068,96.112 233.068 C 94.228 233.068,93.479 231.073,94.933 229.930 C 95.780 229.263,96.415 229.319,97.377 230.145 M80.244 232.151 C 80.784 232.921,80.625 233.586,79.795 234.030 C 79.000 234.455,78.251 234.099,78.022 233.188 C 77.638 231.659,79.342 230.863,80.244 232.151 M298.306 235.502 C 299.118 236.237,299.053 237.686,298.180 238.297 C 297.229 238.963,296.471 238.920,295.707 238.156 C 293.971 236.420,296.484 233.854,298.306 235.502 M263.911 237.838 C 265.128 239.055,264.391 240.700,262.628 240.700 C 261.062 240.700,260.455 238.608,261.756 237.697 C 262.690 237.043,263.146 237.073,263.911 237.838 M121.166 237.849 C 122.105 238.352,121.993 239.981,120.987 240.439 C 119.498 241.117,118.325 239.339,119.445 238.101 C 120.051 237.432,120.314 237.393,121.166 237.849 M301.583 240.223 C 302.258 242.605,302.686 243.084,304.727 243.746 C 307.051 244.500,307.143 244.749,305.190 244.993 C 303.127 245.251,302.357 246.154,301.724 249.061 C 301.184 251.544,300.962 251.550,300.345 249.094 C 299.668 246.397,298.769 245.157,297.476 245.133 C 296.941 245.123,295.930 245.012,295.231 244.886 L 293.959 244.658 296.184 244.066 C 299.146 243.279,299.648 242.772,300.163 240.044 C 300.640 237.517,300.823 237.540,301.583 240.223 M95.390 239.428 C 96.529 240.568,95.714 242.607,94.118 242.607 C 93.299 242.607,92.210 241.518,92.210 240.700 C 92.210 239.881,93.299 238.792,94.118 238.792 C 94.467 238.792,95.040 239.078,95.390 239.428 M102.558 243.388 C 104.135 244.965,103.018 247.695,100.795 247.695 C 99.488 247.695,98.251 246.458,98.251 245.151 C 98.251 243.844,99.488 242.607,100.795 242.607 C 101.414 242.607,102.066 242.896,102.558 243.388 M311.466 244.023 C 312.069 244.943,311.840 245.957,310.919 246.450 C 309.283 247.326,307.577 245.532,308.584 243.995 C 309.264 242.957,310.777 242.971,311.466 244.023 M149.738 244.399 C 151.747 246.952,147.940 250.157,145.866 247.659 C 145.110 246.748,145.151 244.992,145.946 244.197 C 146.918 243.225,148.898 243.330,149.738 244.399 M217.107 246.169 C 218.026 247.088,217.349 248.967,216.098 248.967 C 215.293 248.967,214.308 248.077,214.308 247.350 C 214.308 246.086,216.218 245.280,217.107 246.169 M187.276 257.140 C 188.933 259.247,186.004 261.680,184.102 259.777 C 183.289 258.965,183.296 258.171,184.125 257.118 C 185.018 255.982,186.373 255.992,187.276 257.140 M131.969 256.923 C 133.646 257.821,133.221 260.095,131.376 260.095 C 129.680 260.095,129.045 258.067,130.436 257.093 C 131.274 256.506,131.204 256.514,131.969 256.923 M151.159 260.811 C 151.635 261.572,151.054 262.451,149.989 262.579 C 148.932 262.706,148.294 261.690,148.818 260.712 C 149.243 259.917,150.636 259.976,151.159 260.811 M138.889 274.736 C 139.308 275.075,140.442 275.363,141.895 275.499 C 144.756 275.767,145.534 276.146,143.831 276.441 C 138.555 277.355,138.341 277.549,137.672 282.035 C 137.034 286.319,136.879 286.349,136.246 282.311 C 135.491 277.495,135.357 277.337,131.631 276.879 C 128.347 276.474,128.451 276.246,132.178 275.681 C 135.470 275.181,135.642 274.983,135.914 271.383 C 136.250 266.921,136.426 266.841,137.371 270.720 C 137.969 273.176,138.413 274.350,138.889 274.736 M270.883 272.062 C 272.133 273.651,271.440 275.688,269.481 276.180 C 268.478 276.431,267.181 275.636,266.750 274.504 C 265.841 272.111,269.309 270.061,270.883 272.062 " stroke="none" fill="#343c9c" fill-rule="evenodd"></path><path id="path1" d="M389.654 17.103 C 372.109 34.265,352.314 51.259,333.545 65.272 C 329.610 68.210,325.604 71.230,324.642 71.982 C 306.599 86.105,265.369 109.533,238.951 120.676 C 237.377 121.340,235.966 121.990,235.815 122.122 C 235.664 122.254,236.974 124.198,238.726 126.443 L 241.911 130.525 244.883 131.400 C 248.794 132.552,248.528 132.602,251.987 130.048 C 253.645 128.824,255.070 127.822,255.155 127.822 C 255.240 127.822,255.349 130.031,255.397 132.732 L 255.485 137.641 263.275 134.526 C 279.094 128.200,294.276 121.004,307.472 113.578 C 308.259 113.135,308.760 112.923,308.585 113.107 C 308.250 113.460,296.046 122.538,289.421 127.364 C 285.546 130.187,284.139 131.180,267.174 143.072 C 262.319 146.476,257.826 149.632,257.190 150.087 L 256.033 150.913 257.914 153.914 C 258.949 155.565,259.920 156.959,260.072 157.011 C 260.521 157.165,276.785 145.699,289.507 136.259 C 293.529 133.274,297.750 130.170,298.887 129.361 C 305.658 124.543,324.155 109.632,333.535 101.431 C 336.435 98.895,339.325 96.432,339.957 95.957 C 343.818 93.054,362.293 74.100,368.559 66.614 C 383.628 48.610,393.108 30.030,394.437 15.898 C 394.544 14.762,394.698 13.510,394.778 13.116 C 395.021 11.932,394.628 12.237,389.654 17.103 M223.370 127.201 C 213.433 131.190,205.432 134.108,192.439 138.482 C 186.619 140.440,181.771 142.130,181.665 142.236 C 181.317 142.583,186.769 158.026,187.241 158.027 C 187.618 158.028,204.357 153.855,207.731 152.919 L 208.944 152.582 208.737 150.928 C 207.460 140.705,217.944 130.699,231.037 129.645 L 235.524 129.284 233.475 126.806 C 232.348 125.444,231.330 124.286,231.213 124.233 C 231.097 124.181,227.568 125.516,223.370 127.201 M233.121 138.780 C 228.344 139.870,226.525 142.280,228.305 145.161 C 229.239 146.673,229.088 146.691,237.043 144.116 C 245.592 141.348,244.758 141.804,243.875 140.375 C 242.718 138.502,237.642 137.750,233.121 138.780 M157.967 149.523 C 157.528 149.871,152.761 165.586,153.017 165.841 C 153.205 166.030,163.700 163.588,163.781 163.337 C 163.827 163.196,162.873 159.943,161.662 156.108 C 159.399 148.943,159.183 148.558,157.967 149.523 M144.992 153.163 C 141.430 154.192,141.488 154.015,143.562 157.540 C 144.558 159.232,145.419 160.570,145.475 160.513 C 145.661 160.328,147.903 152.567,147.798 152.474 C 147.741 152.424,146.479 152.734,144.992 153.163 M250.079 154.992 C 248.680 155.927,243.100 159.492,237.679 162.914 C 225.317 170.716,216.123 176.679,213.038 178.893 C 211.728 179.834,210.544 180.604,210.408 180.604 C 210.130 180.604,200.883 186.599,200.636 186.939 C 200.355 187.326,196.727 189.825,196.445 189.825 C 196.099 189.825,183.032 198.530,177.519 202.433 C 175.210 204.068,173.252 205.405,173.167 205.405 C 172.830 205.405,149.029 221.864,135.958 231.136 C 118.226 243.713,99.043 257.918,88.712 266.120 C 85.827 268.411,82.151 271.281,80.545 272.497 C 68.109 281.917,54.709 295.096,52.274 300.305 C 51.184 302.634,51.479 302.488,55.299 298.797 C 61.013 293.276,70.806 285.366,86.459 273.628 C 99.078 264.165,131.455 241.837,161.526 221.859 C 170.183 216.109,177.623 211.119,178.060 210.772 C 178.498 210.425,179.820 209.540,181.000 208.806 C 186.608 205.317,209.772 190.130,210.334 189.574 C 210.958 188.957,223.009 181.240,223.349 181.240 C 223.444 181.240,226.752 179.130,230.699 176.550 C 252.533 162.280,256.142 159.945,256.359 159.941 C 256.837 159.932,256.566 159.299,254.972 156.702 C 252.643 152.908,253.006 153.035,250.079 154.992 M127.027 158.478 L 117.170 161.434 117.084 167.521 C 117.032 171.189,117.117 173.609,117.298 173.609 C 117.463 173.609,121.794 172.689,126.923 171.565 C 132.052 170.442,137.750 169.211,139.587 168.830 C 142.960 168.130,143.720 167.703,143.720 166.508 C 143.720 166.050,137.135 155.393,136.920 155.503 C 136.900 155.513,132.448 156.852,127.027 158.478 M80.845 173.547 L 75.999 175.358 75.996 179.541 L 75.994 183.724 78.776 182.950 C 80.306 182.525,83.560 181.670,86.006 181.049 C 88.453 180.429,90.508 179.868,90.573 179.803 C 90.738 179.638,86.138 171.697,85.891 171.719 C 85.781 171.728,83.511 172.551,80.845 173.547 M61.685 181.216 C 42.798 189.410,26.492 198.322,12.246 208.239 C 6.851 211.995,6.974 212.240,12.621 208.984 C 20.360 204.522,29.386 200.059,35.930 197.458 C 36.717 197.145,38.291 196.464,39.428 195.943 C 42.243 194.655,49.804 191.883,56.988 189.505 L 62.942 187.534 64.873 184.835 C 66.674 182.317,66.797 182.032,66.709 180.606 L 66.614 179.078 61.685 181.216 " stroke="none" fill="#cb0c3d" fill-rule="evenodd"></path><path id="path2" d="M191.797 15.326 C 191.175 15.947,191.325 17.736,192.030 18.113 C 193.957 19.144,195.917 16.948,194.413 15.444 C 193.822 14.853,192.337 14.786,191.797 15.326 M222.492 25.502 C 221.827 31.444,221.918 31.323,217.727 31.837 C 214.363 32.249,213.596 32.750,216.331 32.750 C 221.664 32.750,221.822 32.934,222.556 40.008 C 223.172 45.940,223.325 45.833,223.865 39.101 C 224.348 33.072,224.224 33.227,229.149 32.512 L 232.909 31.967 228.999 31.617 C 224.024 31.171,224.288 31.482,223.810 25.517 C 223.325 19.471,223.168 19.469,222.492 25.502 M181.766 32.378 C 180.640 33.623,181.355 35.374,182.989 35.374 C 184.077 35.374,184.738 34.747,184.738 33.715 C 184.738 32.059,182.831 31.201,181.766 32.378 M201.166 35.188 C 200.763 35.591,200.956 36.499,201.487 36.703 C 202.163 36.962,203.011 36.143,202.756 35.478 C 202.563 34.974,201.562 34.792,201.166 35.188 M162.331 45.982 C 161.966 46.346,161.927 46.620,162.174 47.081 C 162.559 47.800,163.207 47.874,163.719 47.258 C 164.508 46.307,163.204 45.108,162.331 45.982 M186.709 45.851 C 185.865 46.695,186.614 48.649,187.781 48.649 C 188.368 48.649,189.507 47.510,189.507 46.923 C 189.507 45.755,187.553 45.007,186.709 45.851 M165.705 48.754 C 165.164 49.405,165.608 50.291,166.416 50.176 C 166.897 50.107,167.091 49.853,167.091 49.289 C 167.091 48.382,166.275 48.067,165.705 48.754 M170.111 50.874 C 169.868 51.329,169.871 51.697,170.121 52.165 C 170.591 53.043,172.013 52.886,172.369 51.917 C 172.879 50.527,170.809 49.571,170.111 50.874 M202.127 53.785 C 201.477 54.149,201.434 54.800,202.026 55.292 C 202.656 55.815,203.498 55.379,203.498 54.531 C 203.498 53.685,202.894 53.356,202.127 53.785 M163.952 56.448 C 163.607 57.345,163.730 57.836,164.388 58.188 C 165.360 58.708,166.360 58.051,166.235 56.974 C 166.116 55.939,164.307 55.523,163.952 56.448 M136.168 57.869 C 117.864 60.447,111.158 73.897,115.440 99.446 C 118.756 119.229,127.995 141.635,141.129 161.740 L 144.072 166.247 141.671 174.377 C 140.350 178.849,139.269 182.566,139.269 182.636 C 139.269 182.741,137.095 184.677,131.494 189.562 C 131.328 189.707,136.169 189.825,142.252 189.825 L 153.312 189.825 152.166 188.474 C 151.536 187.731,150.215 186.150,149.231 184.962 L 147.441 182.802 148.494 179.000 C 149.073 176.909,149.631 175.200,149.734 175.201 C 149.836 175.203,150.993 176.741,152.304 178.620 C 158.066 186.876,168.913 200.993,171.967 204.210 C 173.223 205.534,173.136 205.548,175.782 203.578 L 176.842 202.789 173.492 199.633 C 168.533 194.963,163.510 188.749,156.632 178.776 L 154.165 175.199 161.644 175.199 L 169.122 175.199 170.266 178.864 C 170.895 180.879,171.343 182.638,171.261 182.771 C 171.178 182.904,169.883 184.510,168.383 186.340 L 165.655 189.666 181.090 189.749 L 196.525 189.831 198.421 188.494 C 200.772 186.836,200.843 187.180,197.528 184.150 L 194.738 181.600 185.843 155.827 L 176.948 130.054 161.213 130.051 L 145.479 130.048 149.037 133.625 L 152.595 137.202 149.282 148.490 C 147.460 154.698,145.848 160.051,145.699 160.386 C 145.056 161.835,133.293 139.898,127.726 126.868 C 110.784 87.216,116.716 60.832,142.289 62.096 C 166.448 63.290,200.714 87.276,232.060 124.935 C 234.014 127.282,235.612 129.301,235.612 129.421 C 235.612 129.541,233.716 129.718,231.399 129.814 C 222.309 130.191,214.765 134.613,211.024 141.758 C 205.827 151.685,209.971 159.471,224.107 166.343 C 229.100 168.770,228.049 168.979,235.771 164.027 C 239.444 161.671,244.146 158.688,246.220 157.398 L 249.993 155.052 247.651 153.874 C 246.364 153.226,242.707 151.819,239.526 150.748 C 230.839 147.824,229.266 147.025,227.955 144.876 C 225.608 141.027,230.472 138.039,238.513 138.390 C 243.186 138.593,242.328 137.877,248.251 146.517 C 256.963 159.226,261.485 166.721,266.899 177.424 C 271.189 185.908,271.071 184.799,267.961 187.441 L 265.342 189.666 269.156 189.825 L 272.970 189.984 274.597 194.831 C 276.596 200.788,276.985 202.713,278.405 213.705 C 280.656 231.124,280.184 236.553,275.839 243.271 C 269.176 253.571,257.933 254.758,235.612 247.517 C 230.083 245.723,229.880 245.839,234.207 248.321 C 248.348 256.432,266.739 256.708,275.455 248.939 C 285.089 240.353,285.790 219.819,277.317 194.463 L 275.767 189.825 281.470 189.825 L 287.172 189.825 286.114 188.601 C 285.532 187.928,284.214 186.423,283.184 185.258 L 281.313 183.138 282.379 179.168 L 283.446 175.199 293.181 175.199 L 302.917 175.199 304.082 178.935 C 304.723 180.990,305.247 182.756,305.247 182.859 C 305.247 182.963,303.961 184.536,302.390 186.357 L 299.533 189.666 308.908 189.750 C 314.064 189.797,322.535 189.797,327.731 189.750 L 337.179 189.666 332.868 185.752 L 328.557 181.837 319.684 155.943 L 310.811 130.048 304.392 130.048 L 297.974 130.048 291.968 134.541 L 285.963 139.035 279.658 160.535 C 276.190 172.360,273.256 182.223,273.138 182.454 C 273.009 182.706,272.380 181.631,271.557 179.751 C 266.978 169.290,258.676 154.596,251.603 144.436 C 250.476 142.818,249.675 141.494,249.822 141.494 C 250.121 141.494,252.719 143.270,254.293 144.551 L 255.326 145.392 255.326 136.580 L 255.326 127.768 253.657 128.974 C 252.738 129.637,251.292 130.701,250.442 131.338 C 248.691 132.651,248.357 132.646,243.992 131.251 L 241.721 130.525 238.233 126.073 C 228.171 113.233,217.616 102.302,203.816 90.430 C 176.291 66.750,152.934 55.508,136.168 57.869 M222.148 64.810 C 220.980 66.101,221.810 68.045,223.529 68.045 C 224.690 68.045,225.437 67.295,225.437 66.132 C 225.437 64.496,223.234 63.611,222.148 64.810 M150.917 73.453 C 150.198 77.589,149.920 77.952,146.891 78.716 L 144.515 79.315 146.823 79.530 C 150.019 79.827,150.166 80.051,150.857 85.670 C 151.160 88.130,151.448 90.184,151.497 90.235 C 151.547 90.285,151.769 88.425,151.991 86.101 C 152.280 83.064,152.565 81.590,153.001 80.859 C 153.664 79.749,153.803 79.685,156.577 79.191 C 157.614 79.006,158.544 78.839,158.643 78.819 C 158.742 78.799,157.609 78.593,156.124 78.362 C 153.183 77.903,152.323 77.311,152.285 75.720 C 152.274 75.258,152.093 73.808,151.881 72.496 L 151.497 70.111 150.917 73.453 M135.135 77.434 C 135.135 78.419,135.961 78.802,136.634 78.129 C 137.307 77.455,136.925 76.630,135.940 76.630 C 135.291 76.630,135.135 76.785,135.135 77.434 M139.565 84.301 C 139.010 85.338,139.653 86.486,140.788 86.486 C 141.854 86.486,142.448 85.974,142.448 85.056 C 142.448 83.584,140.256 83.010,139.565 84.301 M61.367 130.230 C 61.367 130.331,62.655 131.989,64.229 133.915 L 67.091 137.417 67.071 157.818 C 67.046 183.744,67.265 181.739,63.970 186.248 L 61.355 189.825 71.536 189.825 C 77.136 189.825,81.717 189.748,81.717 189.655 C 81.717 189.561,80.358 188.185,78.696 186.596 L 75.676 183.709 75.686 168.881 C 75.694 157.080,75.776 154.159,76.087 154.568 C 76.302 154.850,81.048 162.899,86.634 172.453 L 96.789 189.825 110.080 189.825 C 117.390 189.825,123.370 189.752,123.370 189.663 C 123.370 189.573,121.940 187.679,120.191 185.454 L 117.011 181.408 117.015 158.987 L 117.019 136.566 119.946 133.386 L 122.873 130.207 113.057 130.123 C 107.659 130.076,103.179 130.101,103.102 130.178 C 103.025 130.255,104.192 131.846,105.694 133.714 L 108.426 137.110 108.426 151.703 C 108.426 159.729,108.319 166.291,108.188 166.285 C 108.056 166.280,103.235 158.124,97.474 148.161 L 86.998 130.048 74.183 130.048 C 67.134 130.048,61.367 130.130,61.367 130.230 M280.661 131.367 L 281.980 132.686 283.597 131.499 C 285.662 129.983,285.720 130.048,282.278 130.048 L 279.342 130.048 280.661 131.367 M161.334 154.928 C 163.835 162.694,165.024 166.603,165.024 167.060 C 165.024 167.164,162.147 167.250,158.631 167.250 C 152.671 167.250,152.252 167.212,152.454 166.693 C 152.573 166.387,153.883 161.916,155.365 156.757 C 158.447 146.025,158.277 146.582,158.486 146.582 C 158.574 146.582,159.856 150.338,161.334 154.928 M295.504 156.200 C 297.167 161.316,298.623 165.894,298.741 166.375 L 298.956 167.250 292.528 167.250 C 286.534 167.250,286.115 167.212,286.322 166.693 C 286.690 165.769,288.569 159.487,290.293 153.418 C 292.160 146.841,292.142 146.900,292.336 146.900 C 292.417 146.900,293.842 151.085,295.504 156.200 M247.042 165.921 L 237.963 171.809 239.286 173.132 C 242.079 175.926,241.239 179.979,237.520 181.652 C 235.400 182.606,230.792 182.758,226.810 182.004 C 225.093 181.679,223.525 181.427,223.325 181.444 C 223.125 181.462,220.084 183.299,216.568 185.527 L 210.175 189.578 210.175 191.466 C 210.175 192.919,210.269 193.296,210.581 193.100 C 210.804 192.960,212.486 191.830,214.317 190.588 L 217.647 188.331 219.365 188.916 C 234.598 194.105,256.206 187.898,260.477 177.107 C 262.261 172.599,259.988 163.020,256.492 160.320 C 256.244 160.129,253.101 161.991,247.042 165.921 M210.175 176.582 C 210.175 178.794,210.240 180.604,210.319 180.604 C 210.398 180.604,211.419 179.935,212.589 179.118 L 214.715 177.631 213.429 176.494 C 212.721 175.869,211.700 174.728,211.159 173.959 L 210.175 172.560 210.175 176.582 M136.010 192.712 C 135.026 193.285,135.487 195.231,136.607 195.231 C 136.822 195.231,137.222 195.006,137.497 194.731 C 138.654 193.574,137.416 191.893,136.010 192.712 M314.661 204.112 C 313.990 207.949,313.962 207.975,309.892 208.608 L 306.677 209.107 309.638 209.358 C 312.932 209.638,313.982 210.286,314.310 212.238 C 314.398 212.765,314.657 214.340,314.884 215.739 L 315.299 218.283 315.851 214.795 C 316.359 211.585,316.769 210.531,317.796 209.795 C 317.965 209.674,319.023 209.476,320.146 209.356 C 322.470 209.107,322.242 208.825,319.308 208.321 C 316.655 207.865,316.454 207.603,316.012 204.003 C 315.541 200.169,315.349 200.185,314.661 204.112 M293.915 202.385 C 293.629 203.128,294.032 203.816,294.754 203.816 C 295.563 203.816,295.914 203.017,295.386 202.381 C 294.881 201.772,294.149 201.774,293.915 202.385 M180.365 209.272 L 178.060 210.832 180.079 213.286 C 182.802 216.596,186.270 221.349,187.712 223.750 C 192.458 231.649,203.774 229.100,199.270 221.146 C 198.522 219.825,197.971 219.361,190.620 213.861 C 188.172 212.030,185.382 209.897,184.420 209.121 L 182.671 207.711 180.365 209.272 M296.870 209.484 C 295.810 210.655,296.545 212.401,298.097 212.401 C 299.568 212.401,300.265 210.599,299.205 209.539 C 298.413 208.747,297.555 208.727,296.870 209.484 M272.519 210.377 C 271.163 212.101,272.221 214.308,274.404 214.308 C 275.349 214.308,275.780 214.117,276.289 213.471 C 277.645 211.746,276.587 209.539,274.404 209.539 C 273.458 209.539,273.027 209.731,272.519 210.377 M318.990 218.301 C 318.117 218.912,318.052 220.360,318.864 221.095 C 320.713 222.769,323.225 220.204,321.463 218.442 C 320.699 217.678,319.941 217.635,318.990 218.301 M261.549 219.578 C 260.589 220.538,261.141 221.940,262.480 221.940 C 263.877 221.940,264.487 220.045,263.296 219.407 C 262.460 218.960,262.135 218.992,261.549 219.578 M273.340 222.203 C 272.645 222.971,272.671 224.256,273.395 224.911 C 274.656 226.052,276.630 225.175,276.630 223.474 C 276.630 221.846,274.432 220.997,273.340 222.203 M310.478 222.395 C 309.893 223.287,310.220 224.230,311.316 224.817 C 312.759 225.589,314.312 223.183,313.132 222.003 C 312.467 221.338,311.032 221.550,310.478 222.395 M136.031 222.734 C 135.476 223.952,136.120 225.119,137.347 225.119 C 138.013 225.119,138.457 224.880,138.821 224.324 C 139.549 223.214,138.761 221.940,137.347 221.940 C 136.638 221.940,136.300 222.144,136.031 222.734 M94.992 229.914 C 94.134 230.414,94.273 231.993,95.231 232.621 C 95.967 233.103,96.084 233.103,96.820 232.621 C 98.723 231.374,96.962 228.767,94.992 229.914 M78.342 232.255 C 78.033 233.059,78.364 233.860,79.045 233.958 C 79.897 234.080,80.556 233.282,80.291 232.448 C 80.048 231.684,78.615 231.542,78.342 232.255 M296.103 235.467 C 295.318 236.016,295.136 237.457,295.771 238.092 C 297.033 239.355,299.273 237.760,298.529 236.128 C 298.320 235.669,298.041 235.294,297.908 235.294 C 297.776 235.294,297.476 235.221,297.241 235.131 C 297.007 235.041,296.495 235.192,296.103 235.467 M261.549 238.020 C 260.879 238.689,260.920 239.298,261.685 240.064 C 263.258 241.636,265.195 239.691,263.823 237.917 C 263.395 237.365,262.148 237.421,261.549 238.020 M119.369 238.270 C 118.948 239.367,119.363 240.223,120.315 240.223 C 121.448 240.223,122.099 239.369,121.588 238.553 C 121.135 237.830,119.613 237.636,119.369 238.270 M300.193 240.657 C 299.750 242.905,299.336 243.313,296.661 244.137 C 294.777 244.718,294.696 244.776,295.747 244.803 C 298.752 244.881,299.717 245.707,300.498 248.871 C 300.997 250.888,301.235 250.800,301.717 248.418 C 302.209 245.990,302.934 245.163,304.841 244.856 L 306.359 244.612 305.087 244.084 C 302.431 242.981,302.286 242.844,301.625 240.776 C 300.840 238.321,300.655 238.306,300.193 240.657 M92.909 239.491 C 92.700 239.701,92.528 240.245,92.528 240.700 C 92.528 241.154,92.700 241.698,92.909 241.908 C 93.119 242.118,93.663 242.289,94.118 242.289 C 94.572 242.289,95.116 242.118,95.326 241.908 C 95.536 241.698,95.707 241.154,95.707 240.700 C 95.707 240.245,95.536 239.701,95.326 239.491 C 95.116 239.281,94.572 239.110,94.118 239.110 C 93.663 239.110,93.119 239.281,92.909 239.491 M99.042 243.565 C 97.713 245.034,98.809 247.483,100.795 247.483 C 102.779 247.483,103.855 245.010,102.515 243.529 C 101.763 242.699,99.808 242.719,99.042 243.565 M309.024 243.846 C 307.997 244.678,308.471 246.213,309.803 246.366 C 311.469 246.559,312.256 244.885,311.024 243.769 C 310.278 243.094,309.937 243.107,309.024 243.846 M146.090 244.342 C 144.589 245.843,145.604 248.331,147.718 248.331 C 149.974 248.331,150.989 245.594,149.242 244.220 C 148.130 243.346,147.044 243.388,146.090 244.342 M215.183 246.130 C 214.388 246.593,214.452 248.215,215.284 248.660 C 216.761 249.451,218.151 247.440,216.907 246.313 C 216.239 245.709,215.958 245.679,215.183 246.130 M184.810 256.671 C 183.435 257.334,183.441 259.313,184.819 260.084 C 186.397 260.967,187.943 259.602,187.476 257.740 C 187.338 257.191,186.001 256.167,185.597 256.301 C 185.562 256.313,185.208 256.480,184.810 256.671 M130.229 257.415 C 129.566 258.079,129.598 258.923,130.311 259.569 C 131.041 260.230,131.766 260.239,132.410 259.596 C 133.374 258.631,132.676 256.916,131.320 256.916 C 130.995 256.916,130.504 257.141,130.229 257.415 M149.138 260.557 C 148.296 261.571,149.539 263.166,150.530 262.343 C 151.128 261.847,151.183 261.008,150.652 260.477 C 150.142 259.967,149.604 259.996,149.138 260.557 M136.439 268.362 C 135.933 274.809,135.604 275.464,132.691 275.828 C 129.549 276.221,129.371 276.516,132.125 276.762 C 135.366 277.053,135.639 277.385,136.404 281.981 C 136.715 283.847,136.986 285.248,137.006 285.095 C 137.947 277.954,138.402 277.164,141.896 276.596 C 144.691 276.143,144.504 275.940,140.907 275.522 C 138.466 275.239,138.225 274.944,137.264 271.065 C 136.831 269.316,136.460 268.100,136.439 268.362 M268.203 271.591 C 266.653 272.439,266.360 273.793,267.432 275.156 C 268.638 276.689,271.542 275.702,271.542 273.758 C 271.542 272.252,269.463 270.903,268.203 271.591 " stroke="none" fill="#fafafb" fill-rule="evenodd"></path><path id="path3" d="M139.507 62.233 C 140.076 62.304,141.006 62.304,141.574 62.233 C 142.142 62.163,141.677 62.105,140.541 62.105 C 139.404 62.105,138.939 62.163,139.507 62.233 M113.930 86.010 C 113.932 87.059,113.991 87.450,114.062 86.878 C 114.133 86.307,114.131 85.448,114.059 84.970 C 113.986 84.493,113.928 84.960,113.930 86.010 M213.196 104.610 C 215.464 106.884,217.391 108.744,217.479 108.744 C 217.566 108.744,215.782 106.884,213.514 104.610 C 211.245 102.337,209.318 100.477,209.230 100.477 C 209.143 100.477,210.927 102.337,213.196 104.610 M216.375 101.749 C 217.058 102.448,217.689 103.021,217.776 103.021 C 217.864 103.021,217.376 102.448,216.693 101.749 C 216.010 101.049,215.380 100.477,215.292 100.477 C 215.205 100.477,215.692 101.049,216.375 101.749 M222.562 107.870 C 223.342 108.700,224.022 109.380,224.073 109.380 C 224.311 109.380,224.059 109.094,222.655 107.777 L 221.145 106.359 222.562 107.870 M146.569 131.399 C 147.348 132.230,148.028 132.909,148.079 132.909 C 148.318 132.909,148.065 132.624,146.661 131.306 L 145.151 129.889 146.569 131.399 M150.238 135.135 C 151.277 136.184,152.198 137.043,152.285 137.043 C 152.373 137.043,151.595 136.184,150.556 135.135 C 149.518 134.086,148.597 133.227,148.510 133.227 C 148.422 133.227,149.200 134.086,150.238 135.135 M117.364 136.206 C 117.106 136.517,117.028 140.178,117.091 149.163 L 117.178 161.685 117.253 149.110 C 117.309 139.840,117.429 136.434,117.711 136.153 C 117.921 135.943,118.010 135.771,117.909 135.771 C 117.808 135.771,117.563 135.967,117.364 136.206 M75.822 169.157 C 75.822 177.289,75.864 180.616,75.914 176.550 C 75.964 172.484,75.964 165.831,75.914 161.765 C 75.864 157.699,75.822 161.025,75.822 169.157 M117.135 177.583 C 117.135 179.857,117.186 180.745,117.247 179.558 C 117.309 178.370,117.308 176.510,117.246 175.424 C 117.184 174.338,117.134 175.310,117.135 177.583 M76.948 184.837 C 76.948 184.892,77.413 185.357,77.981 185.871 L 79.014 186.804 78.080 185.771 C 77.210 184.808,76.948 184.592,76.948 184.837 M279.578 227.345 C 279.578 228.132,279.640 228.454,279.716 228.060 C 279.791 227.667,279.791 227.023,279.716 226.630 C 279.640 226.236,279.578 226.558,279.578 227.345 M279.565 230.525 C 279.565 231.137,279.630 231.387,279.710 231.081 C 279.790 230.775,279.790 230.274,279.710 229.968 C 279.630 229.662,279.565 229.913,279.565 230.525 M256.677 252.047 C 256.983 252.127,257.484 252.127,257.790 252.047 C 258.096 251.968,257.846 251.902,257.234 251.902 C 256.622 251.902,256.371 251.968,256.677 252.047 M259.062 252.053 C 259.455 252.128,260.099 252.128,260.493 252.053 C 260.886 251.977,260.564 251.915,259.777 251.915 C 258.990 251.915,258.669 251.977,259.062 252.053 M257.318 254.918 C 257.801 254.991,258.516 254.989,258.907 254.914 C 259.298 254.838,258.903 254.779,258.029 254.781 C 257.154 254.783,256.834 254.845,257.318 254.918 " stroke="none" fill="#7d82bd" fill-rule="evenodd"></path><path id="path4" d="M223.115 19.839 C 222.985 20.170,222.953 20.516,223.045 20.607 C 223.335 20.897,223.590 20.422,223.469 19.818 C 223.357 19.265,223.340 19.266,223.115 19.839 M213.672 32.432 C 213.287 32.682,213.332 32.742,213.911 32.746 C 214.304 32.748,214.626 32.607,214.626 32.432 C 214.626 32.034,214.289 32.034,213.672 32.432 M223.111 44.955 C 222.991 45.266,222.903 45.760,222.914 46.051 C 222.927 46.403,223.037 46.323,223.241 45.814 C 223.409 45.392,223.498 44.898,223.438 44.717 C 223.378 44.536,223.230 44.643,223.111 44.955 M124.781 67.806 L 123.847 68.839 124.881 67.906 C 125.844 67.035,126.060 66.773,125.815 66.773 C 125.760 66.773,125.295 67.238,124.781 67.806 M118.060 88.076 C 118.060 89.038,118.120 89.432,118.193 88.951 C 118.266 88.470,118.266 87.683,118.193 87.202 C 118.120 86.721,118.060 87.114,118.060 88.076 M207.949 99.364 C 208.542 99.976,209.099 100.477,209.187 100.477 C 209.274 100.477,208.860 99.976,208.267 99.364 C 207.674 98.752,207.117 98.251,207.029 98.251 C 206.942 98.251,207.356 98.752,207.949 99.364 M219.396 104.769 C 220.346 105.731,221.194 106.518,221.282 106.518 C 221.369 106.518,220.664 105.731,219.714 104.769 C 218.764 103.808,217.915 103.021,217.828 103.021 C 217.740 103.021,218.446 103.808,219.396 104.769 M218.601 110.016 C 219.284 110.715,219.914 111.288,220.002 111.288 C 220.089 111.288,219.602 110.715,218.919 110.016 C 218.236 109.316,217.605 108.744,217.518 108.744 C 217.431 108.744,217.918 109.316,218.601 110.016 M232.995 129.642 C 233.566 129.713,234.425 129.712,234.902 129.639 C 235.380 129.566,234.913 129.509,233.863 129.510 C 232.814 129.512,232.423 129.571,232.995 129.642 M280.432 131.399 C 281.212 132.230,281.891 132.909,281.942 132.909 C 282.181 132.909,281.929 132.624,280.525 131.306 L 279.014 129.889 280.432 131.399 M108.035 151.669 C 107.988 159.714,108.056 166.296,108.188 166.296 C 108.319 166.296,108.426 159.714,108.426 151.669 C 108.426 143.625,108.357 137.043,108.273 137.043 C 108.189 137.043,108.082 143.625,108.035 151.669 M66.923 158.188 C 66.923 169.730,66.962 174.405,67.011 168.578 C 67.060 162.750,67.060 153.307,67.011 147.592 C 66.962 141.878,66.923 146.645,66.923 158.188 M208.672 149.762 C 208.672 150.548,208.734 150.870,208.809 150.477 C 208.885 150.083,208.885 149.440,208.809 149.046 C 208.734 148.653,208.672 148.975,208.672 149.762 M213.196 159.300 C 213.879 160.000,214.509 160.572,214.596 160.572 C 214.684 160.572,214.197 160.000,213.514 159.300 C 212.830 158.601,212.200 158.029,212.113 158.029 C 212.025 158.029,212.512 158.601,213.196 159.300 M78.855 186.745 C 78.855 186.800,79.320 187.265,79.889 187.778 L 80.922 188.712 79.988 187.679 C 79.118 186.716,78.855 186.499,78.855 186.745 M227.424 190.680 C 227.731 190.760,228.231 190.760,228.537 190.680 C 228.843 190.600,228.593 190.535,227.981 190.535 C 227.369 190.535,227.118 190.600,227.424 190.680 M232.834 190.689 C 233.318 190.762,234.033 190.760,234.424 190.685 C 234.815 190.609,234.420 190.550,233.545 190.552 C 232.671 190.554,232.351 190.616,232.834 190.689 M169.952 196.184 C 170.635 196.884,171.266 197.456,171.353 197.456 C 171.441 197.456,170.953 196.884,170.270 196.184 C 169.587 195.485,168.957 194.913,168.869 194.913 C 168.782 194.913,169.269 195.485,169.952 196.184 M173.609 199.841 C 174.202 200.453,174.759 200.954,174.847 200.954 C 174.934 200.954,174.520 200.453,173.927 199.841 C 173.334 199.229,172.777 198.728,172.689 198.728 C 172.602 198.728,173.016 199.229,173.609 199.841 M283.063 229.889 C 283.063 230.501,283.128 230.751,283.208 230.445 C 283.288 230.139,283.288 229.638,283.208 229.332 C 283.128 229.026,283.063 229.277,283.063 229.889 " stroke="none" fill="#9ca4cc" fill-rule="evenodd"></path></g></svg>